<?xml version="1.0" standalone="no"?>
<!DOCTYPE svg PUBLIC "-//W3C//DTD SVG 20010904//EN"
 "http://www.w3.org/TR/2001/REC-SVG-20010904/DTD/svg10.dtd">
<svg version="1.0" xmlns="http://www.w3.org/2000/svg"
 width="118.000000pt" height="68.000000pt" viewBox="0 0 118.000000 68.000000"
 preserveAspectRatio="xMidYMid meet">

<g transform="translate(0.000000,68.000000) scale(0.100000,-0.100000)"
fill="#E85D04" stroke="none">
<path d="M557 663 c-4 -3 -7 -152 -7 -330 l0 -323 45 0 45 0 0 330 0 330 -38
0 c-21 0 -42 -3 -45 -7z"/>
<path d="M240 350 l0 -231 23 3 22 3 0 225 0 225 -22 3 -23 3 0 -231z"/>
<path d="M444 567 c-2 -7 -3 -114 -2 -237 l3 -225 28 -3 27 -3 0 240 0 241
-25 0 c-14 0 -28 -6 -31 -13z"/>
<path d="M692 343 l3 -238 25 0 25 0 3 238 2 237 -30 0 -30 0 2 -237z"/>
<path d="M894 567 c-2 -7 -3 -109 -2 -227 3 -214 3 -215 26 -218 l22 -3 0 230
c0 226 0 231 -20 231 -11 0 -23 -6 -26 -13z"/>
<path d="M345 498 c-3 -8 -4 -79 -3 -158 3 -137 4 -145 23 -145 19 0 20 7 20
155 0 140 -2 155 -18 158 -9 2 -19 -3 -22 -10z"/>
<path d="M805 488 c-3 -8 -4 -79 -3 -158 3 -137 4 -145 23 -145 19 0 20 7 20
155 0 140 -2 155 -18 158 -9 2 -19 -3 -22 -10z"/>
<path d="M162 353 c2 -88 6 -108 18 -108 12 0 15 18 15 105 0 93 -2 105 -18
108 -16 3 -17 -5 -15 -105z"/>
<path d="M994 437 c-3 -8 -3 -56 -2 -108 3 -80 6 -94 21 -97 15 -3 17 7 17
107 0 93 -2 111 -15 111 -9 0 -18 -6 -21 -13z"/>
<path d="M77 424 c-4 -4 -7 -41 -7 -81 0 -71 1 -74 23 -71 21 3 22 8 22 78 0
60 -3 75 -15 78 -9 1 -19 0 -23 -4z"/>
<path d="M1072 343 c3 -70 5 -78 23 -78 18 0 20 8 23 78 3 77 3 77 -23 77 -26
0 -26 0 -23 -77z"/>
<path d="M15 388 c-9 -24 -2 -93 10 -93 14 0 19 85 6 98 -7 7 -12 5 -16 -5z"/>
<path d="M1145 388 c-9 -24 -2 -93 10 -93 14 0 19 85 6 98 -7 7 -12 5 -16 -5z"/>
</g>
</svg>
