<svg width="7" height="11" viewBox="0 0 7 11" fill="none" xmlns="http://www.w3.org/2000/svg">
<path d="M5.83854 10.9999C5.68912 11.0003 5.54148 10.9744 5.40648 10.9241C5.27147 10.8738 5.15253 10.8004 5.0584 10.7093L0.227529 5.99542C0.0804207 5.85484 0 5.67851 0 5.49654C0 5.31456 0.0804207 5.13823 0.227529 4.99765L5.22843 0.283814C5.3982 0.123374 5.64215 0.0224781 5.90663 0.00332444C6.1711 -0.0158293 6.43443 0.0483276 6.63868 0.181681C6.84294 0.315034 6.97138 0.506661 6.99577 0.714405C7.02015 0.922149 6.93848 1.12899 6.76871 1.28943L2.2979 5.50046L6.61868 9.7115C6.74098 9.82682 6.81868 9.96724 6.84256 10.1162C6.86644 10.2651 6.83552 10.4163 6.75345 10.5518C6.67138 10.6873 6.5416 10.8016 6.37946 10.881C6.21732 10.9604 6.02961 11.0017 5.83854 10.9999Z" fill="#F58732"/>
</svg>
