<svg width="18" height="18" viewBox="0 0 18 18" fill="none" xmlns="http://www.w3.org/2000/svg">
<path d="M9 0.25C7.26942 0.25 5.57769 0.763179 4.13876 1.72464C2.69983 2.6861 1.57832 4.05267 0.916058 5.65152C0.253791 7.25037 0.080512 9.00971 0.418133 10.707C0.755753 12.4044 1.58911 13.9635 2.81282 15.1872C4.03653 16.4109 5.59563 17.2442 7.29296 17.5819C8.9903 17.9195 10.7496 17.7462 12.3485 17.0839C13.9473 16.4217 15.3139 15.3002 16.2754 13.8612C17.2368 12.4223 17.75 10.7306 17.75 9C17.7474 6.68017 16.8246 4.45611 15.1843 2.81574C13.5439 1.17537 11.3198 0.252647 9 0.25ZM9 16.5C7.01088 16.5 5.10323 15.7098 3.6967 14.3033C2.29018 12.8968 1.5 10.9891 1.5 9C1.5 7.01088 2.29018 5.10322 3.6967 3.6967C5.10323 2.29018 7.01088 1.5 9 1.5V9L14.3006 14.3006C13.6055 14.9983 12.7794 15.5517 11.8697 15.9291C10.9601 16.3065 9.98484 16.5006 9 16.5Z" fill="black"/>
</svg>
