<svg width="2rem" height="2rem" viewBox="0 0 50 40" fill="none" xmlns="http://www.w3.org/2000/svg">
<path d="M4.66602 16C2.45268 16 0.666016 17.7867 0.666016 20C0.666016 22.2133 2.45268 24 4.66602 24C6.87935 24 8.66602 22.2133 8.66602 20C8.66602 17.7867 6.87935 16 4.66602 16ZM4.66602 0C2.45268 0 0.666016 1.78667 0.666016 4C0.666016 6.21333 2.45268 8 4.66602 8C6.87935 8 8.66602 6.21333 8.66602 4C8.66602 1.78667 6.87935 0 4.66602 0ZM4.66602 32C2.45268 32 0.666016 33.8133 0.666016 36C0.666016 38.1867 2.47935 40 4.66602 40C6.85268 40 8.66602 38.1867 8.66602 36C8.66602 33.8133 6.87935 32 4.66602 32ZM15.3327 38.6667H47.3327C48.7993 38.6667 49.9993 37.4667 49.9993 36C49.9993 34.5333 48.7993 33.3333 47.3327 33.3333H15.3327C13.866 33.3333 12.666 34.5333 12.666 36C12.666 37.4667 13.866 38.6667 15.3327 38.6667ZM15.3327 22.6667H47.3327C48.7993 22.6667 49.9993 21.4667 49.9993 20C49.9993 18.5333 48.7993 17.3333 47.3327 17.3333H15.3327C13.866 17.3333 12.666 18.5333 12.666 20C12.666 21.4667 13.866 22.6667 15.3327 22.6667ZM12.666 4C12.666 5.46667 13.866 6.66667 15.3327 6.66667H47.3327C48.7993 6.66667 49.9993 5.46667 49.9993 4C49.9993 2.53333 48.7993 1.33333 47.3327 1.33333H15.3327C13.866 1.33333 12.666 2.53333 12.666 4Z" fill="#042330"/>
</svg>
