<svg width="24" height="24" viewBox="0 0 24 24" fill="none" xmlns="http://www.w3.org/2000/svg">
<path d="M0 0H24V24H0V0Z" fill="white"/>
<path d="M12 0C5.376 0 0 5.376 0 12C0 18.624 5.376 24 12 24C18.624 24 24 18.624 24 12C24 5.376 18.624 0 12 0ZM12 21.6C6.708 21.6 2.4 17.292 2.4 12C2.4 6.708 6.708 2.4 12 2.4C17.292 2.4 21.6 6.708 21.6 12C21.6 17.292 17.292 21.6 12 21.6ZM16.656 7.548L9.6 14.604L7.344 12.348C7.11963 12.1236 6.81531 11.9976 6.498 11.9976C6.18069 11.9976 5.87637 12.1236 5.652 12.348C5.42763 12.5724 5.30158 12.8767 5.30158 13.194C5.30158 13.5113 5.42763 13.8156 5.652 14.04L8.76 17.148C9.228 17.616 9.984 17.616 10.452 17.148L18.36 9.24C18.4712 9.12898 18.5595 8.99712 18.6197 8.85195C18.6799 8.70678 18.7109 8.55116 18.7109 8.394C18.7109 8.23684 18.6799 8.08122 18.6197 7.93605C18.5595 7.79088 18.4712 7.65902 18.36 7.548C17.892 7.08 17.124 7.08 16.656 7.548Z" fill="#F58732"/>
</svg>
