<svg width="18" height="8" viewBox="0 0 18 8" fill="none" xmlns="http://www.w3.org/2000/svg">
<path d="M8.98588 7.9973C8.686 7.99782 8.39537 7.90487 8.16446 7.73458L0.463656 2.02324C0.20155 1.82936 0.0367216 1.55074 0.005431 1.2487C-0.0258596 0.946653 0.0789508 0.645916 0.296805 0.412646C0.514659 0.179376 0.827711 0.0326817 1.16709 0.00483352C1.50648 -0.0230146 1.84439 0.0702645 2.10649 0.264151L8.98588 5.38151L15.8653 0.446915C15.9966 0.352031 16.1476 0.281175 16.3098 0.238417C16.4719 0.19566 16.642 0.181846 16.8101 0.197768C16.9783 0.213691 17.1413 0.259035 17.2897 0.331196C17.4381 0.403358 17.569 0.500913 17.675 0.618254C17.7925 0.735704 17.8815 0.873491 17.9364 1.02298C17.9914 1.17248 18.011 1.33045 17.9941 1.48702C17.9773 1.64358 17.9243 1.79535 17.8384 1.93283C17.7526 2.07031 17.6358 2.19053 17.4953 2.28596L9.79447 7.80311C9.55692 7.94649 9.27223 8.01486 8.98588 7.9973Z" fill="black"/>
</svg>
