<svg width="20" height="20" viewBox="0 0 20 20" fill="none" xmlns="http://www.w3.org/2000/svg">
<path d="M13.0769 9.23077H10.8654C10.633 8.97436 10.3446 8.84615 10 8.84615H9.9399L5.70913 4.61538C5.55689 4.46314 5.3746 4.38702 5.16226 4.38702C4.94992 4.38702 4.76763 4.46314 4.61538 4.61538C4.46314 4.76763 4.38702 4.94992 4.38702 5.16226C4.38702 5.3746 4.46314 5.55689 4.61538 5.70913L8.84615 9.9399V10C8.84615 10.3205 8.95833 10.5929 9.18269 10.8173C9.40705 11.0417 9.67949 11.1538 10 11.1538C10.3446 11.1538 10.633 11.0256 10.8654 10.7692H13.0769C13.2853 10.7692 13.4655 10.6931 13.6178 10.5409C13.77 10.3886 13.8462 10.2083 13.8462 10C13.8462 9.79167 13.77 9.61138 13.6178 9.45914C13.4655 9.30689 13.2853 9.23077 13.0769 9.23077ZM10 3.07692C10.2083 3.07692 10.3886 3.15304 10.5409 3.30529C10.6931 3.45753 10.7692 3.63782 10.7692 3.84615C10.7692 4.05449 10.6931 4.23478 10.5409 4.38702C10.3886 4.53926 10.2083 4.61538 10 4.61538C9.79167 4.61538 9.61138 4.53926 9.45914 4.38702C9.30689 4.23478 9.23077 4.05449 9.23077 3.84615C9.23077 3.63782 9.30689 3.45753 9.45914 3.30529C9.61138 3.15304 9.79167 3.07692 10 3.07692ZM10 15.3846C10.2083 15.3846 10.3886 15.4607 10.5409 15.613C10.6931 15.7652 10.7692 15.9455 10.7692 16.1538C10.7692 16.3622 10.6931 16.5425 10.5409 16.6947C10.3886 16.847 10.2083 16.9231 10 16.9231C9.79167 16.9231 9.61138 16.847 9.45914 16.6947C9.30689 16.5425 9.23077 16.3622 9.23077 16.1538C9.23077 15.9455 9.30689 15.7652 9.45914 15.613C9.61138 15.4607 9.79167 15.3846 10 15.3846ZM3.84615 9.23077C4.05449 9.23077 4.23478 9.30689 4.38702 9.45914C4.53926 9.61138 4.61538 9.79167 4.61538 10C4.61538 10.2083 4.53926 10.3886 4.38702 10.5409C4.23478 10.6931 4.05449 10.7692 3.84615 10.7692C3.63782 10.7692 3.45753 10.6931 3.30529 10.5409C3.15304 10.3886 3.07692 10.2083 3.07692 10C3.07692 9.79167 3.15304 9.61138 3.30529 9.45914C3.45753 9.30689 3.63782 9.23077 3.84615 9.23077ZM16.1538 9.23077C16.3622 9.23077 16.5425 9.30689 16.6947 9.45914C16.847 9.61138 16.9231 9.79167 16.9231 10C16.9231 10.2083 16.847 10.3886 16.6947 10.5409C16.5425 10.6931 16.3622 10.7692 16.1538 10.7692C15.9455 10.7692 15.7652 10.6931 15.613 10.5409C15.4607 10.3886 15.3846 10.2083 15.3846 10C15.3846 9.79167 15.4607 9.61138 15.613 9.45914C15.7652 9.30689 15.9455 9.23077 16.1538 9.23077ZM10 0C8.64583 0 7.34976 0.264423 6.11178 0.793269C4.8738 1.32212 3.8101 2.03125 2.92067 2.92067C2.03125 3.8101 1.32212 4.8738 0.793269 6.11178C0.264423 7.34976 0 8.64583 0 10C0 11.3542 0.264423 12.6502 0.793269 13.8882C1.32212 15.1262 2.03125 16.1899 2.92067 17.0793C3.8101 17.9688 4.8738 18.6779 6.11178 19.2067C7.34976 19.7356 8.64583 20 10 20C11.3542 20 12.6502 19.7356 13.8882 19.2067C15.1262 18.6779 16.1899 17.9688 17.0793 17.0793C17.9688 16.1899 18.6779 15.1262 19.2067 13.8882C19.7356 12.6502 20 11.3542 20 10C20 8.64583 19.7356 7.34976 19.2067 6.11178C18.6779 4.8738 17.9688 3.8101 17.0793 2.92067C16.1899 2.03125 15.1262 1.32212 13.8882 0.793269C12.6502 0.264423 11.3542 0 10 0ZM10 1.53846C11.1458 1.53846 12.2416 1.76082 13.2873 2.20553C14.3329 2.65024 15.2344 3.2512 15.9916 4.00841C16.7488 4.76562 17.3498 5.66707 17.7945 6.71274C18.2392 7.75841 18.4615 8.85417 18.4615 10C18.4615 11.1458 18.2392 12.2416 17.7945 13.2873C17.3498 14.3329 16.7488 15.2344 15.9916 15.9916C15.2344 16.7488 14.3329 17.3498 13.2873 17.7945C12.2416 18.2392 11.1458 18.4615 10 18.4615C8.85417 18.4615 7.75841 18.2392 6.71274 17.7945C5.66707 17.3498 4.76562 16.7488 4.00841 15.9916C3.2512 15.2344 2.65024 14.3329 2.20553 13.2873C1.76082 12.2416 1.53846 11.1458 1.53846 10C1.53846 8.85417 1.76082 7.75841 2.20553 6.71274C2.65024 5.66707 3.2512 4.76562 4.00841 4.00841C4.76562 3.2512 5.66707 2.65024 6.71274 2.20553C7.75841 1.76082 8.85417 1.53846 10 1.53846Z" fill="black" fill-opacity="0.75"/>
</svg>
