<svg width="1.1rem" height="1.1rem" viewBox="0 0 20 20" fill="none" xmlns="http://www.w3.org/2000/svg">
<path d="M8.41683 16.7499C10.2658 16.7495 12.0614 16.1306 13.5179 14.9916L18.097 19.5708L19.57 18.0978L14.9908 13.5187C16.1304 12.0621 16.7497 10.266 16.7502 8.41658C16.7502 3.82179 13.0116 0.083252 8.41683 0.083252C3.82204 0.083252 0.0834961 3.82179 0.0834961 8.41658C0.0834961 13.0114 3.82204 16.7499 8.41683 16.7499ZM8.41683 2.16659C11.8637 2.16659 14.6668 4.96971 14.6668 8.41658C14.6668 11.8635 11.8637 14.6666 8.41683 14.6666C4.96995 14.6666 2.16683 11.8635 2.16683 8.41658C2.16683 4.96971 4.96995 2.16659 8.41683 2.16659Z" fill="black"/>
</svg>
