<svg width="2rem" height="2rem" viewBox="0 0 54 54" fill="none" xmlns="http://www.w3.org/2000/svg">
<path d="M3.00008 29.6666H5.66675V48.3332C5.66675 51.2746 8.05875 53.6666 11.0001 53.6666H43.0001C45.9414 53.6666 48.3334 51.2746 48.3334 48.3332V29.6666H51.0001C51.5274 29.6665 52.0429 29.51 52.4813 29.217C52.9197 28.924 53.2614 28.5075 53.4632 28.0203C53.665 27.5331 53.7178 26.997 53.615 26.4798C53.5121 25.9626 53.2582 25.4875 52.8854 25.1146L28.8854 1.11459C28.638 0.866732 28.3441 0.670098 28.0206 0.535936C27.6971 0.401774 27.3503 0.332718 27.0001 0.332718C26.6499 0.332718 26.3031 0.401774 25.9796 0.535936C25.6561 0.670098 25.3622 0.866732 25.1148 1.11459L1.11475 25.1146C0.741924 25.4875 0.48804 25.9626 0.385194 26.4798C0.282347 26.997 0.335155 27.5331 0.536942 28.0203C0.738728 28.5075 1.08043 28.924 1.51886 29.217C1.95729 29.51 2.47275 29.6665 3.00008 29.6666ZM21.6667 48.3332V34.9999H32.3334V48.3332H21.6667ZM27.0001 6.77059L43.0001 22.7706V34.9999L43.0027 48.3332H37.6668V34.9999C37.6668 32.0586 35.2748 29.6666 32.3334 29.6666H21.6667C18.7254 29.6666 16.3334 32.0586 16.3334 34.9999V48.3332H11.0001V22.7706L27.0001 6.77059Z" fill="#03314B"/>
</svg>
