<svg width="7" height="11" viewBox="0 0 7 11" fill="none" xmlns="http://www.w3.org/2000/svg">
<path d="M0.993352 10.9986C0.761661 10.9989 0.537126 10.9351 0.358724 10.8183C0.258315 10.7525 0.175316 10.6716 0.114479 10.5804C0.0536416 10.4892 0.0161625 10.3894 0.00418798 10.2867C-0.00778654 10.184 0.00597897 10.0805 0.0446958 9.98202C0.0834126 9.88355 0.146319 9.79208 0.229814 9.71286L4.67221 5.51075L0.388472 1.3008C0.306104 1.22061 0.244592 1.12834 0.207475 1.02929C0.170357 0.930246 0.158365 0.826376 0.172187 0.723653C0.186009 0.62093 0.225373 0.521379 0.288017 0.430723C0.35066 0.340066 0.435349 0.260092 0.537213 0.195396C0.639811 0.124026 0.75996 0.070192 0.89012 0.0372736C1.02028 0.00435519 1.15764 -0.00693696 1.29359 0.00410525C1.42953 0.0151475 1.56112 0.0482859 1.68009 0.101441C1.79907 0.154596 1.90286 0.22662 1.98496 0.312992L6.77442 5.01685C6.92027 5.15713 7 5.33308 7 5.51467C7 5.69626 6.92027 5.87222 6.77442 6.0125L1.81639 10.7163C1.71691 10.8112 1.59055 10.8862 1.44755 10.9353C1.30455 10.9843 1.14894 11.006 0.993352 10.9986Z" fill="#F58732"/>
</svg>
