<svg width="28" height="28" viewBox="0 0 28 28" fill="none" xmlns="http://www.w3.org/2000/svg">
<path d="M8.06 15.88C8.36788 15.9549 8.68317 15.9952 9 16C9.79436 15.9998 10.5707 15.7631 11.23 15.32L14.45 18.19C14.1949 18.6744 14.0452 19.2072 14.0108 19.7536C13.9763 20.2999 14.0578 20.8474 14.25 21.36C14.4519 21.9408 14.7849 22.4672 15.2232 22.8984C15.6616 23.3296 16.1934 23.6539 16.7775 23.8462C17.3615 24.0385 17.982 24.0935 18.5908 24.0071C19.1996 23.9206 19.7802 23.695 20.2876 23.3477C20.795 23.0004 21.2155 22.5408 21.5164 22.0046C21.8174 21.4684 21.9907 20.87 22.0228 20.256C22.055 19.642 21.9451 19.0288 21.7019 18.4641C21.4586 17.8994 21.0884 17.3984 20.62 17L23.16 11.91C23.6558 12.0218 24.169 12.0325 24.669 11.9415C25.169 11.8504 25.6455 11.6594 26.07 11.38C26.7909 10.94 27.3541 10.2832 27.6788 9.50355C28.0035 8.72392 28.0731 7.86151 27.8777 7.03989C27.6822 6.21826 27.2317 5.47958 26.5907 4.92969C25.9497 4.37979 25.1511 4.04689 24.3093 3.97869C23.4675 3.91048 22.6257 4.11047 21.9045 4.55C21.1834 4.98953 20.6198 5.64604 20.2946 6.42548C19.9695 7.20493 19.8993 8.06729 20.0943 8.88903C20.2893 9.71077 20.7393 10.4497 21.38 11L18.84 16.09C18.5641 16.0294 18.2824 15.9992 18 16C17.2056 16.0002 16.4293 16.2369 15.77 16.68L12.55 13.81C12.8051 13.3256 12.9548 12.7928 12.9892 12.2464C13.0237 11.7001 12.9422 11.1526 12.75 10.64C12.5496 10.0634 12.22 9.54035 11.7862 9.11085C11.3525 8.68134 10.8263 8.35679 10.2478 8.16206C9.66926 7.96733 9.05386 7.90757 8.4487 7.98737C7.84354 8.06717 7.26467 8.28442 6.75643 8.62246C6.24818 8.9605 5.82404 9.41038 5.51649 9.93764C5.20894 10.4649 5.02614 11.0555 4.98208 11.6643C4.93803 12.2732 5.03389 12.884 5.26233 13.45C5.49076 14.0161 5.84572 14.5223 6.3 14.93L2 23V0H0V26C0 26.5304 0.210714 27.0391 0.585786 27.4142C0.960859 27.7893 1.46957 28 2 28H28V26H2.67L8.06 15.88ZM24 6C24.3956 6 24.7822 6.1173 25.1111 6.33706C25.44 6.55682 25.6964 6.86918 25.8478 7.23463C25.9991 7.60009 26.0387 8.00222 25.9616 8.39018C25.8844 8.77814 25.6939 9.13451 25.4142 9.41421C25.1345 9.69392 24.7781 9.8844 24.3902 9.96157C24.0022 10.0387 23.6001 9.99913 23.2346 9.84776C22.8692 9.69638 22.5568 9.44004 22.3371 9.11114C22.1173 8.78224 22 8.39556 22 8C22 7.46957 22.2107 6.96086 22.5858 6.58579C22.9609 6.21071 23.4696 6 24 6ZM20 20C20 20.3956 19.8827 20.7822 19.6629 21.1111C19.4432 21.44 19.1308 21.6964 18.7654 21.8478C18.3999 21.9991 17.9978 22.0387 17.6098 21.9616C17.2219 21.8844 16.8655 21.6939 16.5858 21.4142C16.3061 21.1345 16.1156 20.7781 16.0384 20.3902C15.9613 20.0022 16.0009 19.6001 16.1522 19.2346C16.3036 18.8692 16.56 18.5568 16.8889 18.3371C17.2178 18.1173 17.6044 18 18 18C18.5304 18 19.0391 18.2107 19.4142 18.5858C19.7893 18.9609 20 19.4696 20 20ZM9 10C9.39556 10 9.78224 10.1173 10.1111 10.3371C10.44 10.5568 10.6964 10.8692 10.8478 11.2346C10.9991 11.6001 11.0387 12.0022 10.9616 12.3902C10.8844 12.7781 10.6939 13.1345 10.4142 13.4142C10.1345 13.6939 9.77814 13.8844 9.39018 13.9616C9.00222 14.0387 8.60009 13.9991 8.23463 13.8478C7.86918 13.6964 7.55682 13.44 7.33706 13.1111C7.1173 12.7822 7 12.3956 7 12C7 11.4696 7.21071 10.9609 7.58579 10.5858C7.96086 10.2107 8.46957 10 9 10Z" fill="black"/>
</svg>
