<svg version="1.0"
    xmlns="http://www.w3.org/2000/svg" width="196.000000pt" height="62.000000pt" viewBox="0 0 196.000000 62.000000" preserveAspectRatio="xMidYMid meet">

    <g transform="translate(0.000000,62.000000) scale(0.100000,-0.100000)" fill="#ffffff" stroke="none">
        <path d="M20 603 c0 -4 57 -138 127 -299 l127 -291 123 281 c68 154 126 289
129 299 5 16 -1 18 -57 15 l-63 -3 -60 -157 c-33 -87 -62 -158 -66 -158 -4 0
-35 72 -70 160 l-63 160 -64 0 c-35 0 -63 -3 -63 -7z"/>
        <path d="M1012 544 c-12 -8 -22 -25 -22 -38 0 -25 28 -56 51 -56 26 0 59 31
59 55 0 23 -32 55 -55 55 -6 0 -21 -7 -33 -16z"/>
        <path d="M602 369 c-115 -57 -132 -218 -33 -302 60 -50 186 -54 252 -6 70 49
91 165 44 245 -47 80 -169 109 -263 63z m145 -74 c27 -19 46 -77 38 -115 -12
-53 -76 -84 -130 -64 -23 9 -45 57 -45 99 0 71 81 119 137 80z"/>
        <path d="M1685 376 c-43 -19 -103 -89 -111 -130 -14 -76 22 -163 79 -193 47
-24 106 -33 157 -22 72 15 77 21 50 64 -14 23 -28 34 -37 31 -40 -16 -66 -17
-93 -6 -17 7 -30 16 -30 21 0 5 53 25 118 45 64 20 121 40 126 44 26 24 -48
127 -107 149 -38 15 -115 13 -152 -3z m127 -83 c30 -27 21 -38 -50 -61 -89
-29 -94 -28 -86 6 15 64 91 96 136 55z"/>
        <path d="M990 205 l0 -175 50 0 50 0 0 175 0 175 -50 0 -50 0 0 -175z"/>
        <path d="M1300 373 c-72 -27 -114 -99 -108 -185 9 -116 105 -181 234 -157 68
13 79 25 54 60 -19 26 -24 28 -69 22 -57 -7 -85 6 -107 49 -43 83 46 171 129
127 18 -10 24 -8 44 15 13 15 23 32 23 37 0 28 -148 51 -200 32z"/>
    </g>
</svg>
